<mxfile host="app.diagrams.net" modified="2021-12-14T01:47:42.617Z" agent="5.0 (Windows NT 10.0; Win64; x64) AppleWebKit/537.36 (KHTML, like Gecko) Chrome/96.0.4664.93 Safari/537.36" etag="PSW5gO4QYkc9cqSy3nP4" version="15.9.4" type="github">
  <diagram id="hBjouSgAeCDahPuPuHmp" name="Page-1">
    <mxGraphModel dx="1767" dy="402" grid="1" gridSize="10" guides="1" tooltips="1" connect="1" arrows="1" fold="1" page="1" pageScale="1" pageWidth="850" pageHeight="1100" math="0" shadow="0">
      <root>
        <mxCell id="0" />
        <mxCell id="1" parent="0" />
        <mxCell id="PpvAkOJpzQYMoEsu-7qa-2" value="&lt;span&gt;&lt;font size=&quot;1&quot;&gt;&lt;b style=&quot;font-size: 22px&quot;&gt;POSITIONING IN CSS&lt;/b&gt;&lt;/font&gt;&lt;/span&gt;" style="text;html=1;strokeColor=none;fillColor=none;align=center;verticalAlign=middle;whiteSpace=wrap;rounded=0;" vertex="1" parent="1">
          <mxGeometry x="340" y="30" width="260" height="30" as="geometry" />
        </mxCell>
        <mxCell id="PpvAkOJpzQYMoEsu-7qa-3" value="" style="whiteSpace=wrap;html=1;aspect=fixed;fontSize=22;" vertex="1" parent="1">
          <mxGeometry x="80" y="130" width="260" height="260" as="geometry" />
        </mxCell>
        <mxCell id="PpvAkOJpzQYMoEsu-7qa-4" value="&lt;b&gt;&lt;u&gt;Relative Positioning&lt;/u&gt;&lt;/b&gt;" style="text;html=1;strokeColor=none;fillColor=none;align=center;verticalAlign=middle;whiteSpace=wrap;rounded=0;fontSize=22;" vertex="1" parent="1">
          <mxGeometry x="80" y="80" width="250" height="30" as="geometry" />
        </mxCell>
        <mxCell id="PpvAkOJpzQYMoEsu-7qa-5" value="" style="whiteSpace=wrap;html=1;aspect=fixed;fontSize=22;fillColor=#1ba1e2;fontColor=#ffffff;strokeColor=#006EAF;" vertex="1" parent="1">
          <mxGeometry x="80" y="130" width="110" height="110" as="geometry" />
        </mxCell>
        <mxCell id="PpvAkOJpzQYMoEsu-7qa-7" value="" style="rounded=0;whiteSpace=wrap;html=1;fontSize=22;fillColor=#fa6800;fontColor=#000000;strokeColor=#C73500;" vertex="1" parent="1">
          <mxGeometry x="100" y="250" width="70" height="50" as="geometry" />
        </mxCell>
        <mxCell id="PpvAkOJpzQYMoEsu-7qa-8" value="top:10px;&lt;br&gt;left:50px;" style="text;html=1;strokeColor=none;fillColor=none;align=center;verticalAlign=middle;whiteSpace=wrap;rounded=0;fontSize=22;" vertex="1" parent="1">
          <mxGeometry x="240" y="250" width="90" height="60" as="geometry" />
        </mxCell>
        <mxCell id="PpvAkOJpzQYMoEsu-7qa-9" value="&lt;h1&gt;&lt;font style=&quot;font-size: 29px&quot; color=&quot;#cc0066&quot;&gt;Relative to element&#39;s&lt;/font&gt;&lt;span style=&quot;font-size: 43px&quot;&gt;&amp;nbsp;&lt;/span&gt;&lt;/h1&gt;&lt;div&gt;&amp;nbsp; &amp;nbsp; &amp;nbsp; &amp;nbsp; &lt;b&gt;&lt;u&gt;&amp;nbsp;&lt;font color=&quot;#0000ff&quot;&gt;original position&lt;/font&gt;&lt;/u&gt;&lt;/b&gt;&lt;/div&gt;" style="text;html=1;strokeColor=none;fillColor=none;spacing=5;spacingTop=-20;whiteSpace=wrap;overflow=hidden;rounded=0;fontSize=22;" vertex="1" parent="1">
          <mxGeometry x="400" y="155" width="480" height="210" as="geometry" />
        </mxCell>
        <mxCell id="PpvAkOJpzQYMoEsu-7qa-10" value="" style="whiteSpace=wrap;html=1;aspect=fixed;fontSize=22;" vertex="1" parent="1">
          <mxGeometry x="80" y="520" width="260" height="260" as="geometry" />
        </mxCell>
        <mxCell id="PpvAkOJpzQYMoEsu-7qa-11" value="&lt;b&gt;&lt;u&gt;Absolute Positioning&lt;/u&gt;&lt;/b&gt;" style="text;html=1;strokeColor=none;fillColor=none;align=center;verticalAlign=middle;whiteSpace=wrap;rounded=0;fontSize=22;" vertex="1" parent="1">
          <mxGeometry x="80" y="470" width="250" height="30" as="geometry" />
        </mxCell>
        <mxCell id="PpvAkOJpzQYMoEsu-7qa-12" value="" style="whiteSpace=wrap;html=1;aspect=fixed;fontSize=22;fillColor=#1ba1e2;fontColor=#ffffff;strokeColor=#006EAF;" vertex="1" parent="1">
          <mxGeometry x="80" y="520" width="110" height="110" as="geometry" />
        </mxCell>
        <mxCell id="PpvAkOJpzQYMoEsu-7qa-13" value="" style="rounded=0;whiteSpace=wrap;html=1;fontSize=22;fillColor=#fa6800;fontColor=#000000;strokeColor=#C73500;" vertex="1" parent="1">
          <mxGeometry x="96.25" y="570" width="70" height="50" as="geometry" />
        </mxCell>
        <mxCell id="PpvAkOJpzQYMoEsu-7qa-14" value="bottom:10px;&lt;br&gt;left:50px;" style="text;html=1;strokeColor=none;fillColor=none;align=center;verticalAlign=middle;whiteSpace=wrap;rounded=0;fontSize=22;" vertex="1" parent="1">
          <mxGeometry x="240" y="640" width="90" height="60" as="geometry" />
        </mxCell>
        <mxCell id="PpvAkOJpzQYMoEsu-7qa-15" value="&lt;h1&gt;&lt;font style=&quot;font-size: 29px&quot; color=&quot;#cc0066&quot;&gt;Relative to element&#39;s&lt;/font&gt;&lt;span style=&quot;font-size: 43px&quot;&gt;&amp;nbsp;&lt;/span&gt;&lt;/h1&gt;&lt;div&gt;&amp;nbsp; &amp;nbsp; &amp;nbsp; &amp;nbsp; &amp;nbsp; &amp;nbsp; &amp;nbsp;&amp;nbsp;&lt;b&gt;&lt;u&gt;&amp;nbsp;&lt;font color=&quot;#0000ff&quot;&gt;parent&lt;/font&gt;&lt;/u&gt;&lt;/b&gt;&lt;/div&gt;&lt;div&gt;&lt;b&gt;&lt;u&gt;&lt;font color=&quot;#0000ff&quot;&gt;&lt;br&gt;&lt;/font&gt;&lt;/u&gt;&lt;/b&gt;&lt;/div&gt;&lt;div&gt;&lt;b&gt;&lt;u&gt;&lt;font color=&quot;#0000ff&quot;&gt;&amp;nbsp; &amp;nbsp;or by default viewport&lt;/font&gt;&lt;/u&gt;&lt;/b&gt;&lt;/div&gt;" style="text;html=1;strokeColor=none;fillColor=none;spacing=5;spacingTop=-20;whiteSpace=wrap;overflow=hidden;rounded=0;fontSize=22;" vertex="1" parent="1">
          <mxGeometry x="400" y="545" width="480" height="210" as="geometry" />
        </mxCell>
        <mxCell id="PpvAkOJpzQYMoEsu-7qa-16" value="&lt;b&gt;&lt;font color=&quot;#1a1a1a&quot;&gt;FLEXBOX&lt;/font&gt;&lt;/b&gt;" style="text;html=1;align=center;verticalAlign=middle;resizable=0;points=[];autosize=1;strokeColor=none;fillColor=none;fontSize=29;fontColor=#0000FF;" vertex="1" parent="1">
          <mxGeometry x="215" y="860" width="150" height="40" as="geometry" />
        </mxCell>
        <mxCell id="PpvAkOJpzQYMoEsu-7qa-17" value="" style="whiteSpace=wrap;html=1;fontSize=29;fontColor=#000000;fillColor=#fa6800;strokeColor=#C73500;" vertex="1" parent="1">
          <mxGeometry x="40" y="980" width="690" height="160" as="geometry" />
        </mxCell>
        <mxCell id="PpvAkOJpzQYMoEsu-7qa-18" value="" style="whiteSpace=wrap;html=1;aspect=fixed;fontSize=29;fillColor=#d5e8d4;strokeColor=#82b366;" vertex="1" parent="1">
          <mxGeometry x="60" y="995" width="130" height="130" as="geometry" />
        </mxCell>
        <mxCell id="PpvAkOJpzQYMoEsu-7qa-19" value="" style="whiteSpace=wrap;html=1;aspect=fixed;fontSize=29;fillColor=#e1d5e7;strokeColor=#9673a6;" vertex="1" parent="1">
          <mxGeometry x="225" y="995" width="130" height="130" as="geometry" />
        </mxCell>
        <mxCell id="PpvAkOJpzQYMoEsu-7qa-20" value="" style="whiteSpace=wrap;html=1;aspect=fixed;fontSize=29;fillColor=#f8cecc;strokeColor=#b85450;" vertex="1" parent="1">
          <mxGeometry x="390" y="995" width="130" height="130" as="geometry" />
        </mxCell>
        <mxCell id="PpvAkOJpzQYMoEsu-7qa-21" value="" style="whiteSpace=wrap;html=1;aspect=fixed;fontSize=29;fillColor=#fff2cc;strokeColor=#d6b656;" vertex="1" parent="1">
          <mxGeometry x="560" y="995" width="130" height="130" as="geometry" />
        </mxCell>
        <mxCell id="PpvAkOJpzQYMoEsu-7qa-22" value="" style="curved=1;endArrow=classic;html=1;rounded=0;fontSize=29;fontColor=#1A1A1A;" edge="1" parent="1">
          <mxGeometry width="50" height="50" relative="1" as="geometry">
            <mxPoint x="380" y="980" as="sourcePoint" />
            <mxPoint x="490" y="930" as="targetPoint" />
            <Array as="points">
              <mxPoint x="430" y="980" />
              <mxPoint x="380" y="930" />
            </Array>
          </mxGeometry>
        </mxCell>
        <mxCell id="PpvAkOJpzQYMoEsu-7qa-23" value="&amp;nbsp; &amp;nbsp; &amp;nbsp; &amp;nbsp; &amp;nbsp; &amp;nbsp; &amp;nbsp; &amp;nbsp; Flex container" style="text;html=1;align=center;verticalAlign=middle;resizable=0;points=[];autosize=1;strokeColor=none;fillColor=none;fontSize=29;fontColor=#1A1A1A;" vertex="1" parent="1">
          <mxGeometry x="355" y="910" width="330" height="40" as="geometry" />
        </mxCell>
        <mxCell id="PpvAkOJpzQYMoEsu-7qa-24" value="" style="curved=1;endArrow=classic;html=1;rounded=0;fontSize=29;fontColor=#1A1A1A;" edge="1" parent="1">
          <mxGeometry width="50" height="50" relative="1" as="geometry">
            <mxPoint x="462.5" y="1110" as="sourcePoint" />
            <mxPoint x="270" y="1270" as="targetPoint" />
            <Array as="points">
              <mxPoint x="487.5" y="1200" />
              <mxPoint x="447.5" y="1170" />
              <mxPoint x="437.5" y="1150" />
            </Array>
          </mxGeometry>
        </mxCell>
        <mxCell id="PpvAkOJpzQYMoEsu-7qa-25" value="" style="curved=1;endArrow=classic;html=1;rounded=0;fontSize=29;fontColor=#1A1A1A;" edge="1" parent="1">
          <mxGeometry width="50" height="50" relative="1" as="geometry">
            <mxPoint x="592.3333333333333" y="1110" as="sourcePoint" />
            <mxPoint x="290" y="1280" as="targetPoint" />
            <Array as="points">
              <mxPoint x="615" y="1195" />
              <mxPoint x="565" y="1145" />
            </Array>
          </mxGeometry>
        </mxCell>
        <mxCell id="PpvAkOJpzQYMoEsu-7qa-26" value="" style="curved=1;endArrow=classic;html=1;rounded=0;fontSize=29;fontColor=#1A1A1A;" edge="1" parent="1">
          <mxGeometry width="50" height="50" relative="1" as="geometry">
            <mxPoint x="305" y="1100" as="sourcePoint" />
            <mxPoint x="250" y="1270" as="targetPoint" />
            <Array as="points">
              <mxPoint x="330" y="1190" />
              <mxPoint x="290" y="1160" />
              <mxPoint x="280" y="1140" />
            </Array>
          </mxGeometry>
        </mxCell>
        <mxCell id="PpvAkOJpzQYMoEsu-7qa-27" value="" style="curved=1;endArrow=classic;html=1;rounded=0;fontSize=29;fontColor=#1A1A1A;" edge="1" parent="1">
          <mxGeometry width="50" height="50" relative="1" as="geometry">
            <mxPoint x="132.5" y="1100" as="sourcePoint" />
            <mxPoint x="250" y="1280" as="targetPoint" />
            <Array as="points">
              <mxPoint x="157.5" y="1190" />
              <mxPoint x="117.5" y="1160" />
              <mxPoint x="107.5" y="1140" />
            </Array>
          </mxGeometry>
        </mxCell>
        <mxCell id="PpvAkOJpzQYMoEsu-7qa-28" value="Flexbox Items" style="text;html=1;align=center;verticalAlign=middle;resizable=0;points=[];autosize=1;strokeColor=none;fillColor=none;fontSize=29;fontColor=#1A1A1A;" vertex="1" parent="1">
          <mxGeometry x="85" y="1270" width="200" height="40" as="geometry" />
        </mxCell>
        <mxCell id="PpvAkOJpzQYMoEsu-7qa-29" value="display:flex;" style="text;html=1;align=center;verticalAlign=middle;resizable=0;points=[];autosize=1;strokeColor=none;fillColor=none;fontSize=29;fontColor=#1A1A1A;" vertex="1" parent="1">
          <mxGeometry x="85" y="1360" width="170" height="40" as="geometry" />
        </mxCell>
        <mxCell id="PpvAkOJpzQYMoEsu-7qa-32" value="" style="shape=flexArrow;endArrow=classic;html=1;rounded=0;fontSize=29;fontColor=#1A1A1A;fillColor=#a20025;strokeColor=#6F0000;" edge="1" parent="1">
          <mxGeometry width="50" height="50" relative="1" as="geometry">
            <mxPoint x="20" y="1050" as="sourcePoint" />
            <mxPoint x="760" y="1054.8051948051948" as="targetPoint" />
          </mxGeometry>
        </mxCell>
        <mxCell id="PpvAkOJpzQYMoEsu-7qa-34" value="Main Axis" style="text;html=1;strokeColor=none;fillColor=none;align=center;verticalAlign=middle;whiteSpace=wrap;rounded=0;fontSize=29;fontColor=#1A1A1A;strokeWidth=1;" vertex="1" parent="1">
          <mxGeometry x="345" y="1020" width="220" height="30" as="geometry" />
        </mxCell>
        <mxCell id="PpvAkOJpzQYMoEsu-7qa-36" value="" style="shape=flexArrow;endArrow=classic;html=1;rounded=0;fontSize=29;fontColor=#1A1A1A;fillColor=#a20025;strokeColor=#6F0000;exitX=0.005;exitY=0.4;exitDx=0;exitDy=0;exitPerimeter=0;" edge="1" parent="1" source="PpvAkOJpzQYMoEsu-7qa-23">
          <mxGeometry width="50" height="50" relative="1" as="geometry">
            <mxPoint x="250" y="920" as="sourcePoint" />
            <mxPoint x="360" y="1280" as="targetPoint" />
          </mxGeometry>
        </mxCell>
        <mxCell id="PpvAkOJpzQYMoEsu-7qa-38" value="Cross Axis" style="text;html=1;align=center;verticalAlign=middle;resizable=0;points=[];autosize=1;strokeColor=none;fillColor=none;fontSize=29;fontColor=#1A1A1A;" vertex="1" parent="1">
          <mxGeometry x="365" y="1250" width="150" height="40" as="geometry" />
        </mxCell>
        <mxCell id="PpvAkOJpzQYMoEsu-7qa-39" value="&amp;nbsp; &amp;nbsp; &amp;nbsp; &amp;nbsp; &amp;nbsp; &amp;nbsp; &amp;nbsp; &amp;nbsp; &amp;nbsp; &amp;nbsp; &amp;nbsp; &amp;nbsp; &amp;nbsp; &amp;nbsp; &amp;nbsp; &amp;nbsp; &amp;nbsp; &amp;nbsp; &amp;nbsp; &amp;nbsp; &amp;nbsp; &amp;nbsp; &amp;nbsp; &amp;nbsp; &amp;nbsp;Main axis defined by flex direction!" style="text;html=1;align=center;verticalAlign=middle;resizable=0;points=[];autosize=1;strokeColor=none;fillColor=none;fontSize=29;fontColor=#1A1A1A;" vertex="1" parent="1">
          <mxGeometry x="-320" y="1400" width="850" height="40" as="geometry" />
        </mxCell>
        <mxCell id="PpvAkOJpzQYMoEsu-7qa-40" value="&amp;nbsp; &amp;nbsp; &amp;nbsp; &amp;nbsp; &amp;nbsp; &amp;nbsp; &amp;nbsp; &amp;nbsp; &amp;nbsp; &amp;nbsp; &amp;nbsp; &amp;nbsp; &amp;nbsp; &amp;nbsp; &amp;nbsp; &amp;nbsp; &amp;nbsp; &amp;nbsp; &amp;nbsp; &amp;nbsp; &amp;nbsp; &amp;nbsp; &amp;nbsp; &amp;nbsp; &amp;nbsp; &amp;nbsp; &amp;nbsp; &amp;nbsp; &amp;nbsp; &amp;nbsp; &amp;nbsp; &amp;nbsp;Cross axis runs perpendicular to main axis!" style="text;html=1;align=center;verticalAlign=middle;resizable=0;points=[];autosize=1;strokeColor=none;fillColor=none;fontSize=29;fontColor=#1A1A1A;" vertex="1" parent="1">
          <mxGeometry x="-440" y="1440" width="1080" height="40" as="geometry" />
        </mxCell>
        <mxCell id="PpvAkOJpzQYMoEsu-7qa-42" value="" style="whiteSpace=wrap;html=1;aspect=fixed;fontSize=29;fontColor=#1A1A1A;strokeWidth=1;" vertex="1" parent="1">
          <mxGeometry x="120" y="1600" width="210" height="210" as="geometry" />
        </mxCell>
        <mxCell id="PpvAkOJpzQYMoEsu-7qa-43" value="A" style="whiteSpace=wrap;html=1;aspect=fixed;fontSize=29;fontColor=#ffffff;strokeWidth=1;fillColor=#1ba1e2;strokeColor=#006EAF;" vertex="1" parent="1">
          <mxGeometry x="140" y="1610" width="50" height="50" as="geometry" />
        </mxCell>
        <mxCell id="PpvAkOJpzQYMoEsu-7qa-45" value="B" style="whiteSpace=wrap;html=1;aspect=fixed;fontSize=29;fontColor=#ffffff;strokeWidth=1;fillColor=#e51400;strokeColor=#B20000;" vertex="1" parent="1">
          <mxGeometry x="200" y="1610" width="50" height="50" as="geometry" />
        </mxCell>
        <mxCell id="PpvAkOJpzQYMoEsu-7qa-46" value="C" style="whiteSpace=wrap;html=1;aspect=fixed;fontSize=29;fontColor=#ffffff;strokeWidth=1;fillColor=#a0522d;strokeColor=#6D1F00;" vertex="1" parent="1">
          <mxGeometry x="260" y="1610" width="50" height="50" as="geometry" />
        </mxCell>
        <mxCell id="PpvAkOJpzQYMoEsu-7qa-47" value="&amp;nbsp; &amp;nbsp; &amp;nbsp; &amp;nbsp; &amp;nbsp; &amp;nbsp; &amp;nbsp; &amp;nbsp; flex-direction:row;" style="text;html=1;align=center;verticalAlign=middle;resizable=0;points=[];autosize=1;strokeColor=none;fillColor=none;fontSize=29;fontColor=#1A1A1A;" vertex="1" parent="1">
          <mxGeometry x="-20" y="1540" width="370" height="40" as="geometry" />
        </mxCell>
        <mxCell id="PpvAkOJpzQYMoEsu-7qa-51" value="" style="endArrow=classic;html=1;rounded=0;fontSize=28;fontColor=#1A1A1A;fillColor=#6a00ff;strokeColor=#3700CC;strokeWidth=5;" edge="1" parent="1">
          <mxGeometry width="50" height="50" relative="1" as="geometry">
            <mxPoint x="100" y="1720" as="sourcePoint" />
            <mxPoint x="370" y="1720" as="targetPoint" />
          </mxGeometry>
        </mxCell>
        <mxCell id="PpvAkOJpzQYMoEsu-7qa-52" value="" style="endArrow=classic;html=1;rounded=0;fontSize=28;fontColor=#1A1A1A;strokeWidth=5;strokeColor=#FF0000;dashed=1;" edge="1" parent="1" source="PpvAkOJpzQYMoEsu-7qa-47">
          <mxGeometry width="50" height="50" relative="1" as="geometry">
            <mxPoint x="400" y="1760" as="sourcePoint" />
            <mxPoint x="170" y="1840" as="targetPoint" />
          </mxGeometry>
        </mxCell>
        <mxCell id="PpvAkOJpzQYMoEsu-7qa-53" value="&lt;span style=&quot;font-size: 12px&quot;&gt;&lt;b&gt;main start&lt;/b&gt;&lt;/span&gt;" style="text;html=1;strokeColor=none;fillColor=none;align=center;verticalAlign=middle;whiteSpace=wrap;rounded=0;fontSize=28;fontColor=#1A1A1A;" vertex="1" parent="1">
          <mxGeometry x="30" y="1710" width="70" height="30" as="geometry" />
        </mxCell>
        <mxCell id="PpvAkOJpzQYMoEsu-7qa-54" value="&lt;span style=&quot;font-size: 12px&quot;&gt;&lt;b&gt;main end&lt;/b&gt;&lt;/span&gt;" style="text;html=1;strokeColor=none;fillColor=none;align=center;verticalAlign=middle;whiteSpace=wrap;rounded=0;fontSize=28;fontColor=#1A1A1A;" vertex="1" parent="1">
          <mxGeometry x="350" y="1720" width="60" height="30" as="geometry" />
        </mxCell>
        <mxCell id="PpvAkOJpzQYMoEsu-7qa-55" value="&lt;span style=&quot;font-size: 12px&quot;&gt;&lt;b&gt;cross start&lt;/b&gt;&lt;/span&gt;" style="text;html=1;strokeColor=none;fillColor=none;align=center;verticalAlign=middle;whiteSpace=wrap;rounded=0;fontSize=28;fontColor=#1A1A1A;" vertex="1" parent="1">
          <mxGeometry x="330" y="1600" width="80" height="30" as="geometry" />
        </mxCell>
        <mxCell id="PpvAkOJpzQYMoEsu-7qa-56" value="&lt;span style=&quot;font-size: 12px&quot;&gt;&lt;b&gt;cross end&lt;/b&gt;&lt;/span&gt;" style="text;html=1;strokeColor=none;fillColor=none;align=center;verticalAlign=middle;whiteSpace=wrap;rounded=0;fontSize=28;fontColor=#1A1A1A;" vertex="1" parent="1">
          <mxGeometry x="330" y="1780" width="60" height="30" as="geometry" />
        </mxCell>
        <mxCell id="PpvAkOJpzQYMoEsu-7qa-59" value="" style="whiteSpace=wrap;html=1;aspect=fixed;fontSize=29;fontColor=#1A1A1A;strokeWidth=1;" vertex="1" parent="1">
          <mxGeometry x="460" y="1605" width="210" height="210" as="geometry" />
        </mxCell>
        <mxCell id="PpvAkOJpzQYMoEsu-7qa-60" value="A" style="whiteSpace=wrap;html=1;aspect=fixed;fontSize=29;fontColor=#ffffff;strokeWidth=1;fillColor=#1ba1e2;strokeColor=#006EAF;" vertex="1" parent="1">
          <mxGeometry x="610" y="1610" width="50" height="50" as="geometry" />
        </mxCell>
        <mxCell id="PpvAkOJpzQYMoEsu-7qa-61" value="B" style="whiteSpace=wrap;html=1;aspect=fixed;fontSize=29;fontColor=#ffffff;strokeWidth=1;fillColor=#e51400;strokeColor=#B20000;" vertex="1" parent="1">
          <mxGeometry x="550" y="1610" width="50" height="50" as="geometry" />
        </mxCell>
        <mxCell id="PpvAkOJpzQYMoEsu-7qa-62" value="C" style="whiteSpace=wrap;html=1;aspect=fixed;fontSize=29;fontColor=#ffffff;strokeWidth=1;fillColor=#a0522d;strokeColor=#6D1F00;" vertex="1" parent="1">
          <mxGeometry x="480" y="1610" width="50" height="50" as="geometry" />
        </mxCell>
        <mxCell id="PpvAkOJpzQYMoEsu-7qa-63" value="" style="endArrow=classic;html=1;rounded=0;fontSize=28;fontColor=#1A1A1A;fillColor=#6a00ff;strokeColor=#3700CC;strokeWidth=5;" edge="1" parent="1">
          <mxGeometry width="50" height="50" relative="1" as="geometry">
            <mxPoint x="690" y="1720" as="sourcePoint" />
            <mxPoint x="430" y="1720" as="targetPoint" />
          </mxGeometry>
        </mxCell>
        <mxCell id="PpvAkOJpzQYMoEsu-7qa-64" value="" style="endArrow=classic;html=1;rounded=0;fontSize=28;fontColor=#1A1A1A;strokeWidth=5;strokeColor=#FF0000;dashed=1;" edge="1" parent="1">
          <mxGeometry width="50" height="50" relative="1" as="geometry">
            <mxPoint x="560" y="1840" as="sourcePoint" />
            <mxPoint x="560" y="1580" as="targetPoint" />
          </mxGeometry>
        </mxCell>
        <mxCell id="PpvAkOJpzQYMoEsu-7qa-65" value="&lt;span style=&quot;font-size: 12px&quot;&gt;&lt;b&gt;main start&lt;/b&gt;&lt;/span&gt;" style="text;html=1;strokeColor=none;fillColor=none;align=center;verticalAlign=middle;whiteSpace=wrap;rounded=0;fontSize=28;fontColor=#1A1A1A;" vertex="1" parent="1">
          <mxGeometry x="690" y="1695" width="60" height="30" as="geometry" />
        </mxCell>
        <mxCell id="PpvAkOJpzQYMoEsu-7qa-66" value="&lt;span style=&quot;font-size: 12px&quot;&gt;&lt;b&gt;cross start&lt;/b&gt;&lt;/span&gt;" style="text;html=1;strokeColor=none;fillColor=none;align=center;verticalAlign=middle;whiteSpace=wrap;rounded=0;fontSize=28;fontColor=#1A1A1A;" vertex="1" parent="1">
          <mxGeometry x="670" y="1605" width="80" height="30" as="geometry" />
        </mxCell>
        <mxCell id="PpvAkOJpzQYMoEsu-7qa-67" value="&lt;span style=&quot;font-size: 12px&quot;&gt;&lt;b&gt;cross end&lt;/b&gt;&lt;/span&gt;" style="text;html=1;strokeColor=none;fillColor=none;align=center;verticalAlign=middle;whiteSpace=wrap;rounded=0;fontSize=28;fontColor=#1A1A1A;" vertex="1" parent="1">
          <mxGeometry x="670" y="1785" width="60" height="30" as="geometry" />
        </mxCell>
        <mxCell id="PpvAkOJpzQYMoEsu-7qa-68" value="&amp;nbsp; &amp;nbsp; &amp;nbsp; &amp;nbsp; &amp;nbsp; &amp;nbsp; &amp;nbsp; &amp;nbsp; flex-direction:row-reverse;" style="text;html=1;align=center;verticalAlign=middle;resizable=0;points=[];autosize=1;strokeColor=none;fillColor=none;fontSize=29;fontColor=#1A1A1A;" vertex="1" parent="1">
          <mxGeometry x="280" y="1540" width="480" height="40" as="geometry" />
        </mxCell>
        <mxCell id="PpvAkOJpzQYMoEsu-7qa-69" value="&lt;span style=&quot;font-size: 12px&quot;&gt;&lt;b&gt;main end&lt;/b&gt;&lt;/span&gt;" style="text;html=1;strokeColor=none;fillColor=none;align=center;verticalAlign=middle;whiteSpace=wrap;rounded=0;fontSize=28;fontColor=#1A1A1A;" vertex="1" parent="1">
          <mxGeometry x="450" y="1690" width="60" height="30" as="geometry" />
        </mxCell>
        <mxCell id="PpvAkOJpzQYMoEsu-7qa-70" value="" style="whiteSpace=wrap;html=1;aspect=fixed;fontSize=29;fontColor=#1A1A1A;strokeWidth=1;" vertex="1" parent="1">
          <mxGeometry x="120" y="2000" width="210" height="210" as="geometry" />
        </mxCell>
        <mxCell id="PpvAkOJpzQYMoEsu-7qa-71" value="A" style="whiteSpace=wrap;html=1;aspect=fixed;fontSize=29;fontColor=#ffffff;strokeWidth=1;fillColor=#1ba1e2;strokeColor=#006EAF;" vertex="1" parent="1">
          <mxGeometry x="140" y="2150" width="50" height="50" as="geometry" />
        </mxCell>
        <mxCell id="PpvAkOJpzQYMoEsu-7qa-72" value="B" style="whiteSpace=wrap;html=1;aspect=fixed;fontSize=29;fontColor=#ffffff;strokeWidth=1;fillColor=#e51400;strokeColor=#B20000;" vertex="1" parent="1">
          <mxGeometry x="140" y="2090" width="50" height="50" as="geometry" />
        </mxCell>
        <mxCell id="PpvAkOJpzQYMoEsu-7qa-73" value="C" style="whiteSpace=wrap;html=1;aspect=fixed;fontSize=29;fontColor=#ffffff;strokeWidth=1;fillColor=#a0522d;strokeColor=#6D1F00;" vertex="1" parent="1">
          <mxGeometry x="140" y="2030" width="50" height="50" as="geometry" />
        </mxCell>
        <mxCell id="PpvAkOJpzQYMoEsu-7qa-74" value="" style="endArrow=classic;html=1;rounded=0;fontSize=28;fontColor=#1A1A1A;fillColor=#6a00ff;strokeColor=#3700CC;strokeWidth=5;" edge="1" parent="1">
          <mxGeometry width="50" height="50" relative="1" as="geometry">
            <mxPoint x="260" y="2250" as="sourcePoint" />
            <mxPoint x="260" y="1940" as="targetPoint" />
          </mxGeometry>
        </mxCell>
        <mxCell id="PpvAkOJpzQYMoEsu-7qa-75" value="" style="endArrow=classic;html=1;rounded=0;fontSize=28;fontColor=#1A1A1A;strokeWidth=5;strokeColor=#FF0000;dashed=1;" edge="1" parent="1">
          <mxGeometry width="50" height="50" relative="1" as="geometry">
            <mxPoint x="90" y="2120" as="sourcePoint" />
            <mxPoint x="390" y="2120" as="targetPoint" />
          </mxGeometry>
        </mxCell>
        <mxCell id="PpvAkOJpzQYMoEsu-7qa-76" value="&lt;span style=&quot;font-size: 12px&quot;&gt;&lt;b&gt;main start&lt;/b&gt;&lt;/span&gt;" style="text;html=1;strokeColor=none;fillColor=none;align=center;verticalAlign=middle;whiteSpace=wrap;rounded=0;fontSize=28;fontColor=#1A1A1A;" vertex="1" parent="1">
          <mxGeometry x="222.5" y="2240" width="75" height="30" as="geometry" />
        </mxCell>
        <mxCell id="PpvAkOJpzQYMoEsu-7qa-77" value="&lt;span style=&quot;font-size: 12px&quot;&gt;&lt;b&gt;main end&lt;/b&gt;&lt;/span&gt;" style="text;html=1;strokeColor=none;fillColor=none;align=center;verticalAlign=middle;whiteSpace=wrap;rounded=0;fontSize=28;fontColor=#1A1A1A;" vertex="1" parent="1">
          <mxGeometry x="230" y="1900" width="60" height="60" as="geometry" />
        </mxCell>
        <mxCell id="PpvAkOJpzQYMoEsu-7qa-78" value="&lt;span style=&quot;font-size: 12px&quot;&gt;&lt;b&gt;cross end&lt;/b&gt;&lt;/span&gt;" style="text;html=1;strokeColor=none;fillColor=none;align=center;verticalAlign=middle;whiteSpace=wrap;rounded=0;fontSize=28;fontColor=#1A1A1A;" vertex="1" parent="1">
          <mxGeometry x="320" y="2120" width="80" height="30" as="geometry" />
        </mxCell>
        <mxCell id="PpvAkOJpzQYMoEsu-7qa-79" value="&lt;span style=&quot;font-size: 12px&quot;&gt;&lt;b&gt;cross start&lt;/b&gt;&lt;/span&gt;" style="text;html=1;strokeColor=none;fillColor=none;align=center;verticalAlign=middle;whiteSpace=wrap;rounded=0;fontSize=28;fontColor=#1A1A1A;" vertex="1" parent="1">
          <mxGeometry x="20" y="2100" width="70" height="30" as="geometry" />
        </mxCell>
        <mxCell id="PpvAkOJpzQYMoEsu-7qa-80" style="edgeStyle=orthogonalEdgeStyle;rounded=0;orthogonalLoop=1;jettySize=auto;html=1;exitX=0.5;exitY=1;exitDx=0;exitDy=0;dashed=1;fontSize=14;fontColor=#1A1A1A;strokeColor=#FF0000;strokeWidth=5;" edge="1" parent="1" source="PpvAkOJpzQYMoEsu-7qa-76" target="PpvAkOJpzQYMoEsu-7qa-76">
          <mxGeometry relative="1" as="geometry" />
        </mxCell>
        <mxCell id="PpvAkOJpzQYMoEsu-7qa-81" value="&amp;nbsp; &amp;nbsp; &amp;nbsp; &amp;nbsp; &amp;nbsp; &amp;nbsp; &amp;nbsp; &amp;nbsp; flex-direction:column-reverse;" style="text;html=1;align=center;verticalAlign=middle;resizable=0;points=[];autosize=1;strokeColor=none;fillColor=none;fontSize=29;fontColor=#1A1A1A;" vertex="1" parent="1">
          <mxGeometry x="-100" y="1890" width="520" height="40" as="geometry" />
        </mxCell>
        <mxCell id="PpvAkOJpzQYMoEsu-7qa-82" value="" style="whiteSpace=wrap;html=1;aspect=fixed;fontSize=29;fontColor=#1A1A1A;strokeWidth=1;" vertex="1" parent="1">
          <mxGeometry x="572.5" y="2000" width="210" height="210" as="geometry" />
        </mxCell>
        <mxCell id="PpvAkOJpzQYMoEsu-7qa-83" value="A" style="whiteSpace=wrap;html=1;aspect=fixed;fontSize=29;fontColor=#ffffff;strokeWidth=1;fillColor=#1ba1e2;strokeColor=#006EAF;" vertex="1" parent="1">
          <mxGeometry x="590" y="2010" width="50" height="50" as="geometry" />
        </mxCell>
        <mxCell id="PpvAkOJpzQYMoEsu-7qa-84" value="B" style="whiteSpace=wrap;html=1;aspect=fixed;fontSize=29;fontColor=#ffffff;strokeWidth=1;fillColor=#e51400;strokeColor=#B20000;" vertex="1" parent="1">
          <mxGeometry x="590" y="2070" width="50" height="50" as="geometry" />
        </mxCell>
        <mxCell id="PpvAkOJpzQYMoEsu-7qa-85" value="C" style="whiteSpace=wrap;html=1;aspect=fixed;fontSize=29;fontColor=#ffffff;strokeWidth=1;fillColor=#a0522d;strokeColor=#6D1F00;" vertex="1" parent="1">
          <mxGeometry x="590" y="2130" width="50" height="50" as="geometry" />
        </mxCell>
        <mxCell id="PpvAkOJpzQYMoEsu-7qa-86" value="" style="endArrow=classic;html=1;rounded=0;fontSize=28;fontColor=#1A1A1A;fillColor=#6a00ff;strokeColor=#3700CC;strokeWidth=5;entryX=0.25;entryY=0;entryDx=0;entryDy=0;exitX=0.867;exitY=1.056;exitDx=0;exitDy=0;exitPerimeter=0;" edge="1" parent="1">
          <mxGeometry width="50" height="50" relative="1" as="geometry">
            <mxPoint x="692.02" y="1953.3600000000001" as="sourcePoint" />
            <mxPoint x="693.75" y="2240" as="targetPoint" />
          </mxGeometry>
        </mxCell>
        <mxCell id="PpvAkOJpzQYMoEsu-7qa-87" value="" style="endArrow=classic;html=1;rounded=0;fontSize=28;fontColor=#1A1A1A;strokeWidth=5;strokeColor=#FF0000;dashed=1;" edge="1" parent="1">
          <mxGeometry width="50" height="50" relative="1" as="geometry">
            <mxPoint x="542.5" y="2120" as="sourcePoint" />
            <mxPoint x="842.5" y="2120" as="targetPoint" />
          </mxGeometry>
        </mxCell>
        <mxCell id="PpvAkOJpzQYMoEsu-7qa-90" value="&lt;span style=&quot;font-size: 12px&quot;&gt;&lt;b&gt;cross start&lt;/b&gt;&lt;/span&gt;" style="text;html=1;strokeColor=none;fillColor=none;align=center;verticalAlign=middle;whiteSpace=wrap;rounded=0;fontSize=28;fontColor=#1A1A1A;" vertex="1" parent="1">
          <mxGeometry x="837.5" y="2100" width="80" height="30" as="geometry" />
        </mxCell>
        <mxCell id="PpvAkOJpzQYMoEsu-7qa-91" value="&lt;span style=&quot;font-size: 12px&quot;&gt;&lt;b&gt;cross end&lt;/b&gt;&lt;/span&gt;" style="text;html=1;strokeColor=none;fillColor=none;align=center;verticalAlign=middle;whiteSpace=wrap;rounded=0;fontSize=28;fontColor=#1A1A1A;" vertex="1" parent="1">
          <mxGeometry x="510" y="2120" width="60" height="30" as="geometry" />
        </mxCell>
        <mxCell id="PpvAkOJpzQYMoEsu-7qa-92" style="edgeStyle=orthogonalEdgeStyle;rounded=0;orthogonalLoop=1;jettySize=auto;html=1;exitX=0.5;exitY=1;exitDx=0;exitDy=0;dashed=1;fontSize=14;fontColor=#1A1A1A;strokeColor=#FF0000;strokeWidth=5;" edge="1" parent="1">
          <mxGeometry relative="1" as="geometry">
            <mxPoint x="712.5" y="2270" as="sourcePoint" />
            <mxPoint x="712.5" y="2270" as="targetPoint" />
          </mxGeometry>
        </mxCell>
        <mxCell id="PpvAkOJpzQYMoEsu-7qa-93" value="main start" style="text;whiteSpace=wrap;html=1;fontSize=14;fontColor=#1A1A1A;" vertex="1" parent="1">
          <mxGeometry x="730" y="1930" width="90" height="30" as="geometry" />
        </mxCell>
        <mxCell id="PpvAkOJpzQYMoEsu-7qa-94" value="&lt;span style=&quot;font-size: 12px&quot;&gt;&lt;b&gt;main end&lt;/b&gt;&lt;/span&gt;" style="text;html=1;strokeColor=none;fillColor=none;align=center;verticalAlign=middle;whiteSpace=wrap;rounded=0;fontSize=28;fontColor=#1A1A1A;" vertex="1" parent="1">
          <mxGeometry x="660" y="2220" width="60" height="60" as="geometry" />
        </mxCell>
        <mxCell id="PpvAkOJpzQYMoEsu-7qa-95" value="&amp;nbsp; &amp;nbsp; &amp;nbsp; &amp;nbsp; &amp;nbsp; &amp;nbsp; &amp;nbsp; &amp;nbsp; flex-direction:column;" style="text;html=1;align=center;verticalAlign=middle;resizable=0;points=[];autosize=1;strokeColor=none;fillColor=none;fontSize=29;fontColor=#1A1A1A;" vertex="1" parent="1">
          <mxGeometry x="417.5" y="1900" width="420" height="40" as="geometry" />
        </mxCell>
        <mxCell id="PpvAkOJpzQYMoEsu-7qa-96" value="&lt;b&gt;&lt;font style=&quot;font-size: 24px&quot;&gt;JUSTIFY CONTENT&lt;/font&gt;&lt;/b&gt;" style="text;html=1;align=center;verticalAlign=middle;resizable=0;points=[];autosize=1;strokeColor=none;fillColor=none;fontSize=14;fontColor=#1A1A1A;strokeWidth=2;" vertex="1" parent="1">
          <mxGeometry x="60" y="2430" width="240" height="30" as="geometry" />
        </mxCell>
        <mxCell id="PpvAkOJpzQYMoEsu-7qa-97" value="" style="whiteSpace=wrap;html=1;fontSize=19;fontColor=#ffffff;strokeWidth=2;fillColor=#d80073;strokeColor=#A50040;" vertex="1" parent="1">
          <mxGeometry x="80" y="2550" width="650" height="60" as="geometry" />
        </mxCell>
        <mxCell id="PpvAkOJpzQYMoEsu-7qa-98" value="" style="rounded=1;whiteSpace=wrap;html=1;fontSize=19;fontColor=#ffffff;strokeWidth=2;fillColor=#6a00ff;strokeColor=#3700CC;" vertex="1" parent="1">
          <mxGeometry x="83.75" y="2560" width="82.5" height="40" as="geometry" />
        </mxCell>
        <mxCell id="PpvAkOJpzQYMoEsu-7qa-99" value="" style="whiteSpace=wrap;html=1;aspect=fixed;fontSize=19;fontColor=#ffffff;strokeWidth=2;fillColor=#60a917;strokeColor=#2D7600;" vertex="1" parent="1">
          <mxGeometry x="175" y="2560" width="40" height="40" as="geometry" />
        </mxCell>
        <mxCell id="PpvAkOJpzQYMoEsu-7qa-100" value="" style="whiteSpace=wrap;html=1;aspect=fixed;fontSize=19;fontColor=#ffffff;strokeWidth=2;fillColor=#a20025;strokeColor=#6F0000;" vertex="1" parent="1">
          <mxGeometry x="225" y="2560" width="40" height="40" as="geometry" />
        </mxCell>
        <mxCell id="PpvAkOJpzQYMoEsu-7qa-101" value="" style="rounded=1;whiteSpace=wrap;html=1;fontSize=19;fontColor=#000000;strokeWidth=2;fillColor=#fa6800;strokeColor=#C73500;" vertex="1" parent="1">
          <mxGeometry x="272.5" y="2560" width="82.5" height="40" as="geometry" />
        </mxCell>
        <mxCell id="PpvAkOJpzQYMoEsu-7qa-102" value="" style="whiteSpace=wrap;html=1;fontSize=19;fontColor=#ffffff;strokeWidth=2;fillColor=#d80073;strokeColor=#A50040;" vertex="1" parent="1">
          <mxGeometry x="80" y="2690" width="650" height="60" as="geometry" />
        </mxCell>
        <mxCell id="PpvAkOJpzQYMoEsu-7qa-103" value="" style="rounded=1;whiteSpace=wrap;html=1;fontSize=19;fontColor=#ffffff;strokeWidth=2;fillColor=#6a00ff;strokeColor=#3700CC;" vertex="1" parent="1">
          <mxGeometry x="450" y="2700" width="82.5" height="40" as="geometry" />
        </mxCell>
        <mxCell id="PpvAkOJpzQYMoEsu-7qa-104" value="" style="whiteSpace=wrap;html=1;aspect=fixed;fontSize=19;fontColor=#ffffff;strokeWidth=2;fillColor=#60a917;strokeColor=#2D7600;" vertex="1" parent="1">
          <mxGeometry x="545" y="2700" width="40" height="40" as="geometry" />
        </mxCell>
        <mxCell id="PpvAkOJpzQYMoEsu-7qa-105" value="" style="whiteSpace=wrap;html=1;aspect=fixed;fontSize=19;fontColor=#ffffff;strokeWidth=2;fillColor=#a20025;strokeColor=#6F0000;" vertex="1" parent="1">
          <mxGeometry x="595" y="2700" width="40" height="40" as="geometry" />
        </mxCell>
        <mxCell id="PpvAkOJpzQYMoEsu-7qa-106" value="" style="rounded=1;whiteSpace=wrap;html=1;fontSize=19;fontColor=#000000;strokeWidth=2;fillColor=#fa6800;strokeColor=#C73500;" vertex="1" parent="1">
          <mxGeometry x="640" y="2700" width="82.5" height="40" as="geometry" />
        </mxCell>
        <mxCell id="PpvAkOJpzQYMoEsu-7qa-107" value="" style="whiteSpace=wrap;html=1;fontSize=19;fontColor=#ffffff;strokeWidth=2;fillColor=#d80073;strokeColor=#A50040;" vertex="1" parent="1">
          <mxGeometry x="80" y="2850" width="650" height="60" as="geometry" />
        </mxCell>
        <mxCell id="PpvAkOJpzQYMoEsu-7qa-108" value="" style="rounded=1;whiteSpace=wrap;html=1;fontSize=19;fontColor=#ffffff;strokeWidth=2;fillColor=#6a00ff;strokeColor=#3700CC;" vertex="1" parent="1">
          <mxGeometry x="290" y="2860" width="82.5" height="40" as="geometry" />
        </mxCell>
        <mxCell id="PpvAkOJpzQYMoEsu-7qa-109" value="" style="whiteSpace=wrap;html=1;aspect=fixed;fontSize=19;fontColor=#ffffff;strokeWidth=2;fillColor=#60a917;strokeColor=#2D7600;" vertex="1" parent="1">
          <mxGeometry x="375" y="2860" width="40" height="40" as="geometry" />
        </mxCell>
        <mxCell id="PpvAkOJpzQYMoEsu-7qa-110" value="" style="whiteSpace=wrap;html=1;aspect=fixed;fontSize=19;fontColor=#ffffff;strokeWidth=2;fillColor=#a20025;strokeColor=#6F0000;" vertex="1" parent="1">
          <mxGeometry x="417.5" y="2860" width="40" height="40" as="geometry" />
        </mxCell>
        <mxCell id="PpvAkOJpzQYMoEsu-7qa-111" value="" style="rounded=1;whiteSpace=wrap;html=1;fontSize=19;fontColor=#000000;strokeWidth=2;fillColor=#fa6800;strokeColor=#C73500;" vertex="1" parent="1">
          <mxGeometry x="460" y="2860" width="82.5" height="40" as="geometry" />
        </mxCell>
        <mxCell id="PpvAkOJpzQYMoEsu-7qa-112" value="" style="whiteSpace=wrap;html=1;fontSize=19;fontColor=#ffffff;strokeWidth=2;fillColor=#d80073;strokeColor=#A50040;" vertex="1" parent="1">
          <mxGeometry x="100" y="3010" width="650" height="60" as="geometry" />
        </mxCell>
        <mxCell id="PpvAkOJpzQYMoEsu-7qa-113" value="" style="rounded=1;whiteSpace=wrap;html=1;fontSize=19;fontColor=#ffffff;strokeWidth=2;fillColor=#6a00ff;strokeColor=#3700CC;" vertex="1" parent="1">
          <mxGeometry x="103.75" y="3020" width="82.5" height="40" as="geometry" />
        </mxCell>
        <mxCell id="PpvAkOJpzQYMoEsu-7qa-114" value="" style="whiteSpace=wrap;html=1;aspect=fixed;fontSize=19;fontColor=#ffffff;strokeWidth=2;fillColor=#60a917;strokeColor=#2D7600;" vertex="1" parent="1">
          <mxGeometry x="327.5" y="3020" width="40" height="40" as="geometry" />
        </mxCell>
        <mxCell id="PpvAkOJpzQYMoEsu-7qa-115" value="" style="whiteSpace=wrap;html=1;aspect=fixed;fontSize=19;fontColor=#ffffff;strokeWidth=2;fillColor=#a20025;strokeColor=#6F0000;" vertex="1" parent="1">
          <mxGeometry x="515" y="3020" width="40" height="40" as="geometry" />
        </mxCell>
        <mxCell id="PpvAkOJpzQYMoEsu-7qa-116" value="" style="rounded=1;whiteSpace=wrap;html=1;fontSize=19;fontColor=#000000;strokeWidth=2;fillColor=#fa6800;strokeColor=#C73500;" vertex="1" parent="1">
          <mxGeometry x="667.5" y="3020" width="82.5" height="40" as="geometry" />
        </mxCell>
        <mxCell id="PpvAkOJpzQYMoEsu-7qa-117" value="2unit" style="whiteSpace=wrap;html=1;fontSize=19;fontColor=#ffffff;strokeWidth=2;fillColor=#d80073;strokeColor=#A50040;" vertex="1" parent="1">
          <mxGeometry x="93.75" y="3190" width="650" height="60" as="geometry" />
        </mxCell>
        <mxCell id="PpvAkOJpzQYMoEsu-7qa-118" value="" style="rounded=1;whiteSpace=wrap;html=1;fontSize=19;fontColor=#ffffff;strokeWidth=2;fillColor=#6a00ff;strokeColor=#3700CC;" vertex="1" parent="1">
          <mxGeometry x="147.5" y="3200" width="82.5" height="40" as="geometry" />
        </mxCell>
        <mxCell id="PpvAkOJpzQYMoEsu-7qa-119" value="" style="whiteSpace=wrap;html=1;aspect=fixed;fontSize=19;fontColor=#ffffff;strokeWidth=2;fillColor=#60a917;strokeColor=#2D7600;" vertex="1" parent="1">
          <mxGeometry x="315" y="3200" width="40" height="40" as="geometry" />
        </mxCell>
        <mxCell id="PpvAkOJpzQYMoEsu-7qa-120" value="" style="whiteSpace=wrap;html=1;aspect=fixed;fontSize=19;fontColor=#ffffff;strokeWidth=2;fillColor=#a20025;strokeColor=#6F0000;" vertex="1" parent="1">
          <mxGeometry x="470" y="3200" width="40" height="40" as="geometry" />
        </mxCell>
        <mxCell id="PpvAkOJpzQYMoEsu-7qa-121" value="" style="rounded=1;whiteSpace=wrap;html=1;fontSize=19;fontColor=#000000;strokeWidth=2;fillColor=#fa6800;strokeColor=#C73500;" vertex="1" parent="1">
          <mxGeometry x="620" y="3200" width="82.5" height="40" as="geometry" />
        </mxCell>
        <mxCell id="PpvAkOJpzQYMoEsu-7qa-122" value="" style="whiteSpace=wrap;html=1;fontSize=19;fontColor=#ffffff;strokeWidth=2;fillColor=#d80073;strokeColor=#A50040;" vertex="1" parent="1">
          <mxGeometry x="80" y="3370" width="650" height="60" as="geometry" />
        </mxCell>
        <mxCell id="PpvAkOJpzQYMoEsu-7qa-123" value="" style="rounded=1;whiteSpace=wrap;html=1;fontSize=19;fontColor=#ffffff;strokeWidth=2;fillColor=#6a00ff;strokeColor=#3700CC;" vertex="1" parent="1">
          <mxGeometry x="170" y="3380" width="82.5" height="40" as="geometry" />
        </mxCell>
        <mxCell id="PpvAkOJpzQYMoEsu-7qa-124" value="" style="whiteSpace=wrap;html=1;aspect=fixed;fontSize=19;fontColor=#ffffff;strokeWidth=2;fillColor=#60a917;strokeColor=#2D7600;" vertex="1" parent="1">
          <mxGeometry x="340" y="3380" width="40" height="40" as="geometry" />
        </mxCell>
        <mxCell id="PpvAkOJpzQYMoEsu-7qa-125" value="" style="whiteSpace=wrap;html=1;aspect=fixed;fontSize=19;fontColor=#ffffff;strokeWidth=2;fillColor=#a20025;strokeColor=#6F0000;" vertex="1" parent="1">
          <mxGeometry x="457.5" y="3380" width="40" height="40" as="geometry" />
        </mxCell>
        <mxCell id="PpvAkOJpzQYMoEsu-7qa-126" value="" style="rounded=1;whiteSpace=wrap;html=1;fontSize=19;fontColor=#000000;strokeWidth=2;fillColor=#fa6800;strokeColor=#C73500;" vertex="1" parent="1">
          <mxGeometry x="570" y="3380" width="82.5" height="40" as="geometry" />
        </mxCell>
        <mxCell id="PpvAkOJpzQYMoEsu-7qa-128" value="SPACE BETWEEN" style="text;html=1;align=center;verticalAlign=middle;resizable=0;points=[];autosize=1;strokeColor=none;fillColor=none;fontSize=19;fontColor=#1A1A1A;" vertex="1" parent="1">
          <mxGeometry x="85" y="2970" width="180" height="30" as="geometry" />
        </mxCell>
        <mxCell id="PpvAkOJpzQYMoEsu-7qa-129" value="" style="endArrow=classic;startArrow=classic;html=1;rounded=0;fontSize=19;fontColor=#1A1A1A;strokeColor=#333333;strokeWidth=5;exitX=1;exitY=0.25;exitDx=0;exitDy=0;entryX=0;entryY=0.25;entryDx=0;entryDy=0;" edge="1" parent="1" source="PpvAkOJpzQYMoEsu-7qa-119" target="PpvAkOJpzQYMoEsu-7qa-120">
          <mxGeometry width="50" height="50" relative="1" as="geometry">
            <mxPoint x="380" y="3210" as="sourcePoint" />
            <mxPoint x="430" y="3160" as="targetPoint" />
          </mxGeometry>
        </mxCell>
        <mxCell id="PpvAkOJpzQYMoEsu-7qa-130" value="" style="endArrow=classic;startArrow=classic;html=1;rounded=0;fontSize=19;fontColor=#1A1A1A;strokeColor=#333333;strokeWidth=5;entryX=0;entryY=0.5;entryDx=0;entryDy=0;" edge="1" parent="1" source="PpvAkOJpzQYMoEsu-7qa-118" target="PpvAkOJpzQYMoEsu-7qa-117">
          <mxGeometry width="50" height="50" relative="1" as="geometry">
            <mxPoint x="130" y="3220" as="sourcePoint" />
            <mxPoint x="430" y="3160" as="targetPoint" />
          </mxGeometry>
        </mxCell>
        <mxCell id="PpvAkOJpzQYMoEsu-7qa-131" value="&lt;font color=&quot;#ffffff&quot;&gt;1unit&lt;/font&gt;" style="text;whiteSpace=wrap;html=1;fontSize=19;fontColor=#1A1A1A;" vertex="1" parent="1">
          <mxGeometry x="103.75" y="3220" width="70" height="40" as="geometry" />
        </mxCell>
        <mxCell id="PpvAkOJpzQYMoEsu-7qa-133" value="SPACE AROUND" style="text;html=1;align=center;verticalAlign=middle;resizable=0;points=[];autosize=1;strokeColor=none;fillColor=none;fontSize=19;fontColor=#1A1A1A;" vertex="1" parent="1">
          <mxGeometry x="93.75" y="3150" width="160" height="30" as="geometry" />
        </mxCell>
        <mxCell id="PpvAkOJpzQYMoEsu-7qa-134" value="SPACE EVENLY" style="text;html=1;align=center;verticalAlign=middle;resizable=0;points=[];autosize=1;strokeColor=none;fillColor=none;fontSize=19;fontColor=#1A1A1A;" vertex="1" parent="1">
          <mxGeometry x="80" y="3340" width="160" height="30" as="geometry" />
        </mxCell>
        <mxCell id="PpvAkOJpzQYMoEsu-7qa-137" value="&amp;nbsp; &amp;nbsp; &amp;nbsp; &amp;nbsp; &amp;nbsp; &amp;nbsp; &amp;nbsp; &amp;nbsp; &amp;nbsp; &amp;nbsp; &amp;nbsp; &amp;nbsp; &amp;nbsp; &amp;nbsp; &amp;nbsp; &amp;nbsp; &amp;nbsp; &amp;nbsp; &amp;nbsp; &amp;nbsp; &amp;nbsp; &amp;nbsp; &amp;nbsp; &amp;nbsp; &amp;nbsp; &amp;nbsp; &amp;nbsp; &amp;nbsp; &amp;nbsp; &amp;nbsp; &amp;nbsp; &amp;nbsp; &amp;nbsp; &amp;nbsp; &amp;nbsp;Justify content property align the flex items horizantallywithin the flex container." style="text;html=1;align=center;verticalAlign=middle;resizable=0;points=[];autosize=1;strokeColor=none;fillColor=none;fontSize=24;fontColor=#333333;" vertex="1" parent="1">
          <mxGeometry x="-395" y="2465" width="1310" height="30" as="geometry" />
        </mxCell>
        <mxCell id="PpvAkOJpzQYMoEsu-7qa-138" value="flex-start" style="text;html=1;align=center;verticalAlign=middle;resizable=0;points=[];autosize=1;strokeColor=none;fillColor=none;fontSize=24;fontColor=#333333;" vertex="1" parent="1">
          <mxGeometry x="70" y="2515" width="110" height="30" as="geometry" />
        </mxCell>
        <mxCell id="PpvAkOJpzQYMoEsu-7qa-139" value="flex-end" style="text;html=1;align=center;verticalAlign=middle;resizable=0;points=[];autosize=1;strokeColor=none;fillColor=none;fontSize=24;fontColor=#333333;" vertex="1" parent="1">
          <mxGeometry x="75" y="2660" width="100" height="30" as="geometry" />
        </mxCell>
        <mxCell id="PpvAkOJpzQYMoEsu-7qa-140" value="&amp;nbsp; &amp;nbsp;center" style="text;html=1;align=center;verticalAlign=middle;resizable=0;points=[];autosize=1;strokeColor=none;fillColor=none;fontSize=24;fontColor=#333333;" vertex="1" parent="1">
          <mxGeometry x="50" y="2815" width="100" height="30" as="geometry" />
        </mxCell>
        <mxCell id="PpvAkOJpzQYMoEsu-7qa-141" value="&lt;b&gt;&lt;font style=&quot;font-size: 26px&quot;&gt;ALIGN ITEMS&lt;/font&gt;&lt;/b&gt;" style="text;html=1;align=center;verticalAlign=middle;resizable=0;points=[];autosize=1;strokeColor=none;fillColor=none;fontSize=24;fontColor=#333333;" vertex="1" parent="1">
          <mxGeometry x="70" y="3650" width="180" height="40" as="geometry" />
        </mxCell>
        <mxCell id="PpvAkOJpzQYMoEsu-7qa-142" value="" style="whiteSpace=wrap;html=1;aspect=fixed;fontSize=26;strokeWidth=2;fillColor=#ffff88;strokeColor=#36393d;" vertex="1" parent="1">
          <mxGeometry x="80" y="3840" width="220" height="220" as="geometry" />
        </mxCell>
        <mxCell id="PpvAkOJpzQYMoEsu-7qa-143" value="1" style="rounded=1;whiteSpace=wrap;html=1;fontSize=26;strokeWidth=2;fillColor=#cce5ff;strokeColor=#36393d;" vertex="1" parent="1">
          <mxGeometry x="90" y="3840" width="55" height="90" as="geometry" />
        </mxCell>
        <mxCell id="PpvAkOJpzQYMoEsu-7qa-144" value="2" style="whiteSpace=wrap;html=1;aspect=fixed;fontSize=26;strokeWidth=2;fillColor=#ffcccc;strokeColor=#36393d;" vertex="1" parent="1">
          <mxGeometry x="150" y="3840" width="50" height="50" as="geometry" />
        </mxCell>
        <mxCell id="PpvAkOJpzQYMoEsu-7qa-145" value="3" style="rounded=1;whiteSpace=wrap;html=1;fontSize=26;strokeWidth=2;fillColor=#cdeb8b;strokeColor=#36393d;" vertex="1" parent="1">
          <mxGeometry x="210" y="3840" width="55" height="120" as="geometry" />
        </mxCell>
        <mxCell id="PpvAkOJpzQYMoEsu-7qa-146" value="" style="whiteSpace=wrap;html=1;aspect=fixed;fontSize=26;strokeWidth=2;fillColor=#ffff88;strokeColor=#36393d;" vertex="1" parent="1">
          <mxGeometry x="90" y="4180" width="220" height="220" as="geometry" />
        </mxCell>
        <mxCell id="PpvAkOJpzQYMoEsu-7qa-147" value="1" style="rounded=1;whiteSpace=wrap;html=1;fontSize=26;strokeWidth=2;fillColor=#cce5ff;strokeColor=#36393d;" vertex="1" parent="1">
          <mxGeometry x="100" y="4310" width="55" height="90" as="geometry" />
        </mxCell>
        <mxCell id="PpvAkOJpzQYMoEsu-7qa-148" value="2" style="whiteSpace=wrap;html=1;aspect=fixed;fontSize=26;strokeWidth=2;fillColor=#ffcccc;strokeColor=#36393d;" vertex="1" parent="1">
          <mxGeometry x="160" y="4350" width="50" height="50" as="geometry" />
        </mxCell>
        <mxCell id="PpvAkOJpzQYMoEsu-7qa-149" value="3" style="rounded=1;whiteSpace=wrap;html=1;fontSize=26;strokeWidth=2;fillColor=#cdeb8b;strokeColor=#36393d;" vertex="1" parent="1">
          <mxGeometry x="215" y="4280" width="55" height="120" as="geometry" />
        </mxCell>
        <mxCell id="PpvAkOJpzQYMoEsu-7qa-150" value="" style="whiteSpace=wrap;html=1;aspect=fixed;fontSize=26;strokeWidth=2;fillColor=#ffff88;strokeColor=#36393d;" vertex="1" parent="1">
          <mxGeometry x="110" y="4600" width="220" height="220" as="geometry" />
        </mxCell>
        <mxCell id="PpvAkOJpzQYMoEsu-7qa-151" value="1" style="rounded=1;whiteSpace=wrap;html=1;fontSize=26;strokeWidth=2;fillColor=#cce5ff;strokeColor=#36393d;" vertex="1" parent="1">
          <mxGeometry x="110" y="4600" width="70" height="220" as="geometry" />
        </mxCell>
        <mxCell id="PpvAkOJpzQYMoEsu-7qa-153" value="3" style="rounded=1;whiteSpace=wrap;html=1;fontSize=26;strokeWidth=2;fillColor=#cdeb8b;strokeColor=#36393d;" vertex="1" parent="1">
          <mxGeometry x="240" y="4600" width="90" height="220" as="geometry" />
        </mxCell>
        <mxCell id="PpvAkOJpzQYMoEsu-7qa-154" value="" style="whiteSpace=wrap;html=1;aspect=fixed;fontSize=26;strokeWidth=2;fillColor=#ffff88;strokeColor=#36393d;" vertex="1" parent="1">
          <mxGeometry x="130" y="4980" width="220" height="220" as="geometry" />
        </mxCell>
        <mxCell id="PpvAkOJpzQYMoEsu-7qa-155" value="1" style="rounded=1;whiteSpace=wrap;html=1;fontSize=26;strokeWidth=2;fillColor=#cce5ff;strokeColor=#36393d;" vertex="1" parent="1">
          <mxGeometry x="140" y="4995" width="55" height="90" as="geometry" />
        </mxCell>
        <mxCell id="PpvAkOJpzQYMoEsu-7qa-156" value="2" style="whiteSpace=wrap;html=1;aspect=fixed;fontSize=26;strokeWidth=2;fillColor=#ffcccc;strokeColor=#36393d;" vertex="1" parent="1">
          <mxGeometry x="202.5" y="5015" width="50" height="50" as="geometry" />
        </mxCell>
        <mxCell id="PpvAkOJpzQYMoEsu-7qa-157" value="3" style="rounded=1;whiteSpace=wrap;html=1;fontSize=26;strokeWidth=2;fillColor=#cdeb8b;strokeColor=#36393d;" vertex="1" parent="1">
          <mxGeometry x="260" y="4980" width="55" height="120" as="geometry" />
        </mxCell>
        <mxCell id="PpvAkOJpzQYMoEsu-7qa-158" value="Flex-start" style="text;html=1;align=center;verticalAlign=middle;resizable=0;points=[];autosize=1;strokeColor=none;fillColor=none;fontSize=26;fontColor=#333333;" vertex="1" parent="1">
          <mxGeometry x="70" y="3780" width="120" height="40" as="geometry" />
        </mxCell>
        <mxCell id="PpvAkOJpzQYMoEsu-7qa-159" value="Flex-end" style="text;html=1;align=center;verticalAlign=middle;resizable=0;points=[];autosize=1;strokeColor=none;fillColor=none;fontSize=26;fontColor=#333333;" vertex="1" parent="1">
          <mxGeometry x="80" y="4130" width="120" height="40" as="geometry" />
        </mxCell>
        <mxCell id="PpvAkOJpzQYMoEsu-7qa-160" value="2" style="rounded=1;whiteSpace=wrap;html=1;fontSize=26;strokeWidth=2;fillColor=#ffcccc;strokeColor=#36393d;" vertex="1" parent="1">
          <mxGeometry x="180" y="4600" width="80" height="220" as="geometry" />
        </mxCell>
        <mxCell id="PpvAkOJpzQYMoEsu-7qa-161" value="stretch" style="text;html=1;align=center;verticalAlign=middle;resizable=0;points=[];autosize=1;strokeColor=none;fillColor=none;fontSize=26;fontColor=#333333;" vertex="1" parent="1">
          <mxGeometry x="95" y="4550" width="90" height="40" as="geometry" />
        </mxCell>
        <mxCell id="PpvAkOJpzQYMoEsu-7qa-162" value="" style="endArrow=none;html=1;rounded=0;fontSize=26;fontColor=#333333;strokeColor=#FF8000;strokeWidth=5;exitX=0.045;exitY=0.318;exitDx=0;exitDy=0;exitPerimeter=0;fillColor=#ffcc99;" edge="1" parent="1" source="PpvAkOJpzQYMoEsu-7qa-154">
          <mxGeometry width="50" height="50" relative="1" as="geometry">
            <mxPoint x="420" y="5110" as="sourcePoint" />
            <mxPoint x="460" y="5050" as="targetPoint" />
          </mxGeometry>
        </mxCell>
        <mxCell id="PpvAkOJpzQYMoEsu-7qa-163" value="baseline" style="text;html=1;align=center;verticalAlign=middle;resizable=0;points=[];autosize=1;strokeColor=none;fillColor=none;fontSize=26;fontColor=#333333;" vertex="1" parent="1">
          <mxGeometry x="455" y="5030" width="110" height="40" as="geometry" />
        </mxCell>
        <mxCell id="PpvAkOJpzQYMoEsu-7qa-164" value="Baseline" style="text;html=1;align=center;verticalAlign=middle;resizable=0;points=[];autosize=1;strokeColor=none;fillColor=none;fontSize=26;fontColor=#333333;" vertex="1" parent="1">
          <mxGeometry x="120" y="4920" width="120" height="40" as="geometry" />
        </mxCell>
        <mxCell id="PpvAkOJpzQYMoEsu-7qa-165" value="" style="whiteSpace=wrap;html=1;aspect=fixed;fontSize=26;strokeWidth=2;fillColor=#ffff88;strokeColor=#36393d;" vertex="1" parent="1">
          <mxGeometry x="120" y="5340" width="220" height="220" as="geometry" />
        </mxCell>
        <mxCell id="PpvAkOJpzQYMoEsu-7qa-166" value="1" style="rounded=1;whiteSpace=wrap;html=1;fontSize=26;strokeWidth=2;fillColor=#cce5ff;strokeColor=#36393d;" vertex="1" parent="1">
          <mxGeometry x="145" y="5390" width="55" height="90" as="geometry" />
        </mxCell>
        <mxCell id="PpvAkOJpzQYMoEsu-7qa-167" value="2" style="whiteSpace=wrap;html=1;aspect=fixed;fontSize=26;strokeWidth=2;fillColor=#ffcccc;strokeColor=#36393d;" vertex="1" parent="1">
          <mxGeometry x="200" y="5410" width="50" height="50" as="geometry" />
        </mxCell>
        <mxCell id="PpvAkOJpzQYMoEsu-7qa-168" value="3" style="rounded=1;whiteSpace=wrap;html=1;fontSize=26;strokeWidth=2;fillColor=#cdeb8b;strokeColor=#36393d;" vertex="1" parent="1">
          <mxGeometry x="242.5" y="5375" width="55" height="120" as="geometry" />
        </mxCell>
        <mxCell id="PpvAkOJpzQYMoEsu-7qa-169" value="Center" style="text;html=1;align=center;verticalAlign=middle;resizable=0;points=[];autosize=1;strokeColor=none;fillColor=none;fontSize=26;fontColor=#333333;" vertex="1" parent="1">
          <mxGeometry x="115" y="5290" width="90" height="40" as="geometry" />
        </mxCell>
        <mxCell id="PpvAkOJpzQYMoEsu-7qa-185" value="&lt;font color=&quot;#1a1a1a&quot;&gt;&lt;b&gt;GRID&lt;/b&gt;&lt;/font&gt;" style="text;html=1;align=center;verticalAlign=middle;resizable=0;points=[];autosize=1;strokeColor=none;fillColor=none;fontSize=29;fontColor=#0000FF;" vertex="1" parent="1">
          <mxGeometry x="325" y="5790" width="90" height="40" as="geometry" />
        </mxCell>
        <mxCell id="PpvAkOJpzQYMoEsu-7qa-186" value="" style="whiteSpace=wrap;html=1;fontSize=29;fontColor=#000000;fillColor=#fa6800;strokeColor=#C73500;" vertex="1" parent="1">
          <mxGeometry x="120" y="5915" width="690" height="335" as="geometry" />
        </mxCell>
        <mxCell id="PpvAkOJpzQYMoEsu-7qa-187" value="" style="whiteSpace=wrap;html=1;aspect=fixed;fontSize=29;fillColor=#d5e8d4;strokeColor=#82b366;" vertex="1" parent="1">
          <mxGeometry x="140" y="5925" width="130" height="130" as="geometry" />
        </mxCell>
        <mxCell id="PpvAkOJpzQYMoEsu-7qa-188" value="" style="whiteSpace=wrap;html=1;aspect=fixed;fontSize=29;fillColor=#e1d5e7;strokeColor=#9673a6;" vertex="1" parent="1">
          <mxGeometry x="305" y="5925" width="130" height="130" as="geometry" />
        </mxCell>
        <mxCell id="PpvAkOJpzQYMoEsu-7qa-189" value="" style="whiteSpace=wrap;html=1;aspect=fixed;fontSize=29;fillColor=#f8cecc;strokeColor=#b85450;" vertex="1" parent="1">
          <mxGeometry x="470" y="5925" width="130" height="130" as="geometry" />
        </mxCell>
        <mxCell id="PpvAkOJpzQYMoEsu-7qa-190" value="" style="whiteSpace=wrap;html=1;aspect=fixed;fontSize=29;fillColor=#fff2cc;strokeColor=#d6b656;" vertex="1" parent="1">
          <mxGeometry x="640" y="5925" width="130" height="130" as="geometry" />
        </mxCell>
        <mxCell id="PpvAkOJpzQYMoEsu-7qa-191" value="" style="curved=1;endArrow=classic;html=1;rounded=0;fontSize=29;fontColor=#1A1A1A;" edge="1" parent="1" target="PpvAkOJpzQYMoEsu-7qa-192">
          <mxGeometry width="50" height="50" relative="1" as="geometry">
            <mxPoint x="445" y="5930" as="sourcePoint" />
            <mxPoint x="555" y="5880" as="targetPoint" />
            <Array as="points">
              <mxPoint x="495" y="5930" />
              <mxPoint x="445" y="5880" />
              <mxPoint x="540" y="5890" />
            </Array>
          </mxGeometry>
        </mxCell>
        <mxCell id="PpvAkOJpzQYMoEsu-7qa-192" value="&amp;nbsp; &amp;nbsp; &amp;nbsp; &amp;nbsp; &amp;nbsp; &amp;nbsp; &amp;nbsp; &amp;nbsp; GRID container" style="text;html=1;align=center;verticalAlign=middle;resizable=0;points=[];autosize=1;strokeColor=none;fillColor=none;fontSize=29;fontColor=#1A1A1A;" vertex="1" parent="1">
          <mxGeometry x="430" y="5840" width="340" height="40" as="geometry" />
        </mxCell>
        <mxCell id="PpvAkOJpzQYMoEsu-7qa-193" value="" style="curved=1;endArrow=classic;html=1;rounded=0;fontSize=29;fontColor=#1A1A1A;" edge="1" parent="1">
          <mxGeometry width="50" height="50" relative="1" as="geometry">
            <mxPoint x="525" y="6200" as="sourcePoint" />
            <mxPoint x="332.5" y="6360" as="targetPoint" />
            <Array as="points">
              <mxPoint x="550" y="6290" />
              <mxPoint x="510" y="6260" />
              <mxPoint x="500" y="6240" />
            </Array>
          </mxGeometry>
        </mxCell>
        <mxCell id="PpvAkOJpzQYMoEsu-7qa-194" value="" style="curved=1;endArrow=classic;html=1;rounded=0;fontSize=29;fontColor=#1A1A1A;" edge="1" parent="1">
          <mxGeometry width="50" height="50" relative="1" as="geometry">
            <mxPoint x="712.333333333333" y="6220" as="sourcePoint" />
            <mxPoint x="410" y="6390" as="targetPoint" />
            <Array as="points">
              <mxPoint x="735" y="6305" />
              <mxPoint x="685" y="6255" />
            </Array>
          </mxGeometry>
        </mxCell>
        <mxCell id="PpvAkOJpzQYMoEsu-7qa-195" value="" style="curved=1;endArrow=classic;html=1;rounded=0;fontSize=29;fontColor=#1A1A1A;entryX=0.25;entryY=0;entryDx=0;entryDy=0;entryPerimeter=0;" edge="1" parent="1" target="PpvAkOJpzQYMoEsu-7qa-197">
          <mxGeometry width="50" height="50" relative="1" as="geometry">
            <mxPoint x="347.5" y="6150" as="sourcePoint" />
            <mxPoint x="292.5" y="6320" as="targetPoint" />
            <Array as="points">
              <mxPoint x="372.5" y="6240" />
              <mxPoint x="332.5" y="6210" />
              <mxPoint x="322.5" y="6190" />
            </Array>
          </mxGeometry>
        </mxCell>
        <mxCell id="PpvAkOJpzQYMoEsu-7qa-196" value="" style="curved=1;endArrow=classic;html=1;rounded=0;fontSize=29;fontColor=#1A1A1A;" edge="1" parent="1" source="PpvAkOJpzQYMoEsu-7qa-207">
          <mxGeometry width="50" height="50" relative="1" as="geometry">
            <mxPoint x="167.5" y="6240" as="sourcePoint" />
            <mxPoint x="285" y="6420" as="targetPoint" />
            <Array as="points">
              <mxPoint x="192.5" y="6330" />
              <mxPoint x="152.5" y="6300" />
              <mxPoint x="142.5" y="6280" />
            </Array>
          </mxGeometry>
        </mxCell>
        <mxCell id="PpvAkOJpzQYMoEsu-7qa-197" value="Grid Items" style="text;html=1;align=center;verticalAlign=middle;resizable=0;points=[];autosize=1;strokeColor=none;fillColor=none;fontSize=29;fontColor=#1A1A1A;" vertex="1" parent="1">
          <mxGeometry x="275" y="6380" width="150" height="40" as="geometry" />
        </mxCell>
        <mxCell id="PpvAkOJpzQYMoEsu-7qa-207" value="" style="whiteSpace=wrap;html=1;aspect=fixed;fontSize=29;fillColor=#d5e8d4;strokeColor=#82b366;" vertex="1" parent="1">
          <mxGeometry x="135" y="6110" width="130" height="130" as="geometry" />
        </mxCell>
        <mxCell id="PpvAkOJpzQYMoEsu-7qa-208" value="" style="whiteSpace=wrap;html=1;aspect=fixed;fontSize=29;fillColor=#e1d5e7;strokeColor=#9673a6;" vertex="1" parent="1">
          <mxGeometry x="305" y="6110" width="130" height="130" as="geometry" />
        </mxCell>
        <mxCell id="PpvAkOJpzQYMoEsu-7qa-209" value="" style="whiteSpace=wrap;html=1;aspect=fixed;fontSize=29;fillColor=#f8cecc;strokeColor=#b85450;" vertex="1" parent="1">
          <mxGeometry x="470" y="6110" width="130" height="130" as="geometry" />
        </mxCell>
        <mxCell id="PpvAkOJpzQYMoEsu-7qa-210" value="" style="whiteSpace=wrap;html=1;aspect=fixed;fontSize=29;fillColor=#fff2cc;strokeColor=#d6b656;" vertex="1" parent="1">
          <mxGeometry x="640" y="6110" width="130" height="130" as="geometry" />
        </mxCell>
        <mxCell id="PpvAkOJpzQYMoEsu-7qa-211" value="" style="shape=flexArrow;endArrow=classic;html=1;rounded=0;fontSize=29;fontColor=#1A1A1A;fillColor=#a20025;strokeColor=#6F0000;" edge="1" parent="1">
          <mxGeometry width="50" height="50" relative="1" as="geometry">
            <mxPoint x="93" y="5910" as="sourcePoint" />
            <mxPoint x="93.34999999999991" y="6284" as="targetPoint" />
          </mxGeometry>
        </mxCell>
        <mxCell id="PpvAkOJpzQYMoEsu-7qa-212" value="" style="shape=flexArrow;endArrow=classic;html=1;rounded=0;fontSize=29;fontColor=#1A1A1A;fillColor=#a20025;strokeColor=#6F0000;" edge="1" parent="1">
          <mxGeometry width="50" height="50" relative="1" as="geometry">
            <mxPoint x="95" y="5910.19" as="sourcePoint" />
            <mxPoint x="835" y="5914.995194805194" as="targetPoint" />
          </mxGeometry>
        </mxCell>
        <mxCell id="PpvAkOJpzQYMoEsu-7qa-213" value="column axis" style="text;html=1;align=center;verticalAlign=middle;resizable=0;points=[];autosize=1;strokeColor=none;fillColor=none;fontSize=26;fontColor=#333333;" vertex="1" parent="1">
          <mxGeometry x="83.75" y="6250" width="150" height="40" as="geometry" />
        </mxCell>
        <mxCell id="PpvAkOJpzQYMoEsu-7qa-214" value="row axis" style="text;html=1;align=center;verticalAlign=middle;resizable=0;points=[];autosize=1;strokeColor=none;fillColor=none;fontSize=26;fontColor=#333333;" vertex="1" parent="1">
          <mxGeometry x="195" y="5870" width="110" height="40" as="geometry" />
        </mxCell>
        <mxCell id="PpvAkOJpzQYMoEsu-7qa-216" value="" style="whiteSpace=wrap;html=1;fontSize=29;fontColor=#000000;fillColor=#fa6800;strokeColor=#C73500;" vertex="1" parent="1">
          <mxGeometry x="156.25" y="6590" width="690" height="335" as="geometry" />
        </mxCell>
        <mxCell id="PpvAkOJpzQYMoEsu-7qa-217" value="" style="whiteSpace=wrap;html=1;aspect=fixed;fontSize=29;fillColor=#d5e8d4;strokeColor=#82b366;" vertex="1" parent="1">
          <mxGeometry x="176.25" y="6600" width="130" height="130" as="geometry" />
        </mxCell>
        <mxCell id="PpvAkOJpzQYMoEsu-7qa-218" value="" style="whiteSpace=wrap;html=1;aspect=fixed;fontSize=29;fillColor=#e1d5e7;strokeColor=#9673a6;" vertex="1" parent="1">
          <mxGeometry x="341.25" y="6600" width="130" height="130" as="geometry" />
        </mxCell>
        <mxCell id="PpvAkOJpzQYMoEsu-7qa-219" value="" style="whiteSpace=wrap;html=1;aspect=fixed;fontSize=29;fillColor=#f8cecc;strokeColor=#b85450;" vertex="1" parent="1">
          <mxGeometry x="506.25" y="6600" width="130" height="130" as="geometry" />
        </mxCell>
        <mxCell id="PpvAkOJpzQYMoEsu-7qa-220" value="" style="whiteSpace=wrap;html=1;aspect=fixed;fontSize=29;fillColor=#fff2cc;strokeColor=#d6b656;" vertex="1" parent="1">
          <mxGeometry x="676.25" y="6600" width="130" height="130" as="geometry" />
        </mxCell>
        <mxCell id="PpvAkOJpzQYMoEsu-7qa-221" value="" style="whiteSpace=wrap;html=1;aspect=fixed;fontSize=29;fillColor=#d5e8d4;strokeColor=#82b366;" vertex="1" parent="1">
          <mxGeometry x="171.25" y="6785" width="130" height="130" as="geometry" />
        </mxCell>
        <mxCell id="PpvAkOJpzQYMoEsu-7qa-222" value="" style="whiteSpace=wrap;html=1;aspect=fixed;fontSize=29;fillColor=#e1d5e7;strokeColor=#9673a6;" vertex="1" parent="1">
          <mxGeometry x="341.25" y="6785" width="130" height="130" as="geometry" />
        </mxCell>
        <mxCell id="PpvAkOJpzQYMoEsu-7qa-223" value="" style="whiteSpace=wrap;html=1;aspect=fixed;fontSize=29;fillColor=#f8cecc;strokeColor=#b85450;" vertex="1" parent="1">
          <mxGeometry x="506.25" y="6785" width="130" height="130" as="geometry" />
        </mxCell>
        <mxCell id="PpvAkOJpzQYMoEsu-7qa-225" value="" style="shape=flexArrow;endArrow=classic;html=1;rounded=0;fontSize=29;fontColor=#1A1A1A;fillColor=#a20025;strokeColor=#6F0000;" edge="1" parent="1">
          <mxGeometry width="50" height="50" relative="1" as="geometry">
            <mxPoint x="104.5" y="6590" as="sourcePoint" />
            <mxPoint x="104.84999999999991" y="6964" as="targetPoint" />
          </mxGeometry>
        </mxCell>
        <mxCell id="PpvAkOJpzQYMoEsu-7qa-227" value="column axis" style="text;html=1;align=center;verticalAlign=middle;resizable=0;points=[];autosize=1;strokeColor=none;fillColor=none;fontSize=26;fontColor=#333333;" vertex="1" parent="1">
          <mxGeometry x="80" y="6960" width="150" height="40" as="geometry" />
        </mxCell>
        <mxCell id="PpvAkOJpzQYMoEsu-7qa-228" value="" style="endArrow=none;html=1;rounded=0;fontSize=26;fontColor=#333333;strokeWidth=5;dashed=1;strokeColor=none;endFill=0;entryX=0.203;entryY=1.001;entryDx=0;entryDy=0;entryPerimeter=0;" edge="1" parent="1" target="PpvAkOJpzQYMoEsu-7qa-216">
          <mxGeometry width="50" height="50" relative="1" as="geometry">
            <mxPoint x="450" y="6860" as="sourcePoint" />
            <mxPoint x="500" y="6800" as="targetPoint" />
          </mxGeometry>
        </mxCell>
        <mxCell id="PpvAkOJpzQYMoEsu-7qa-230" value="" style="endArrow=classic;html=1;rounded=0;fontSize=28;fontColor=#1A1A1A;strokeWidth=5;strokeColor=#FFFFFF;dashed=1;" edge="1" parent="1">
          <mxGeometry width="50" height="50" relative="1" as="geometry">
            <mxPoint x="320" y="6590" as="sourcePoint" />
            <mxPoint x="325" y="6940" as="targetPoint" />
          </mxGeometry>
        </mxCell>
        <mxCell id="PpvAkOJpzQYMoEsu-7qa-231" value="" style="endArrow=classic;html=1;rounded=0;fontSize=28;fontColor=#1A1A1A;strokeWidth=5;strokeColor=#FFFFFF;dashed=1;" edge="1" parent="1">
          <mxGeometry width="50" height="50" relative="1" as="geometry">
            <mxPoint x="487.5" y="6582.5" as="sourcePoint" />
            <mxPoint x="492.5" y="6932.5" as="targetPoint" />
          </mxGeometry>
        </mxCell>
        <mxCell id="PpvAkOJpzQYMoEsu-7qa-232" value="" style="endArrow=classic;html=1;rounded=0;fontSize=28;fontColor=#1A1A1A;strokeWidth=5;strokeColor=#FFFFFF;dashed=1;" edge="1" parent="1">
          <mxGeometry width="50" height="50" relative="1" as="geometry">
            <mxPoint x="655" y="6590" as="sourcePoint" />
            <mxPoint x="660" y="6940" as="targetPoint" />
          </mxGeometry>
        </mxCell>
        <mxCell id="PpvAkOJpzQYMoEsu-7qa-233" value="" style="endArrow=classic;html=1;rounded=0;fontSize=28;fontColor=#1A1A1A;strokeWidth=5;strokeColor=#FFFFFF;dashed=1;" edge="1" parent="1">
          <mxGeometry width="50" height="50" relative="1" as="geometry">
            <mxPoint x="837.5" y="6582.5" as="sourcePoint" />
            <mxPoint x="842.5" y="6932.5" as="targetPoint" />
          </mxGeometry>
        </mxCell>
        <mxCell id="PpvAkOJpzQYMoEsu-7qa-234" value="" style="endArrow=classic;html=1;rounded=0;fontSize=28;fontColor=#1A1A1A;strokeWidth=5;strokeColor=#FFFFFF;dashed=1;" edge="1" parent="1">
          <mxGeometry width="50" height="50" relative="1" as="geometry">
            <mxPoint x="157.5" y="6590" as="sourcePoint" />
            <mxPoint x="162.5" y="6940" as="targetPoint" />
          </mxGeometry>
        </mxCell>
        <mxCell id="PpvAkOJpzQYMoEsu-7qa-235" value="" style="endArrow=classic;html=1;rounded=0;fontSize=28;fontColor=#1A1A1A;strokeWidth=5;strokeColor=#FFFFFF;dashed=1;" edge="1" parent="1">
          <mxGeometry width="50" height="50" relative="1" as="geometry">
            <mxPoint x="147.5" y="6757" as="sourcePoint" />
            <mxPoint x="847.5" y="6757" as="targetPoint" />
          </mxGeometry>
        </mxCell>
        <mxCell id="PpvAkOJpzQYMoEsu-7qa-236" value="" style="endArrow=classic;html=1;rounded=0;fontSize=28;fontColor=#1A1A1A;strokeWidth=5;strokeColor=#FFFFFF;dashed=1;" edge="1" parent="1">
          <mxGeometry width="50" height="50" relative="1" as="geometry">
            <mxPoint x="137.5" y="6599" as="sourcePoint" />
            <mxPoint x="837.5" y="6599" as="targetPoint" />
          </mxGeometry>
        </mxCell>
        <mxCell id="PpvAkOJpzQYMoEsu-7qa-237" value="" style="endArrow=classic;html=1;rounded=0;fontSize=28;fontColor=#1A1A1A;strokeWidth=5;strokeColor=#FFFFFF;dashed=1;" edge="1" parent="1">
          <mxGeometry width="50" height="50" relative="1" as="geometry">
            <mxPoint x="166.25" y="6915" as="sourcePoint" />
            <mxPoint x="866.25" y="6915" as="targetPoint" />
          </mxGeometry>
        </mxCell>
        <mxCell id="PpvAkOJpzQYMoEsu-7qa-238" value="&lt;b&gt;1&lt;/b&gt;" style="text;html=1;align=center;verticalAlign=middle;resizable=0;points=[];autosize=1;strokeColor=none;fillColor=none;fontSize=26;fontColor=#333333;" vertex="1" parent="1">
          <mxGeometry x="145" y="6540" width="30" height="40" as="geometry" />
        </mxCell>
        <mxCell id="PpvAkOJpzQYMoEsu-7qa-239" value="&lt;b&gt;2&lt;/b&gt;" style="text;html=1;align=center;verticalAlign=middle;resizable=0;points=[];autosize=1;strokeColor=none;fillColor=none;fontSize=26;fontColor=#333333;" vertex="1" parent="1">
          <mxGeometry x="305" y="6540" width="30" height="40" as="geometry" />
        </mxCell>
        <mxCell id="PpvAkOJpzQYMoEsu-7qa-240" value="&lt;b&gt;3&lt;/b&gt;" style="text;html=1;align=center;verticalAlign=middle;resizable=0;points=[];autosize=1;strokeColor=none;fillColor=none;fontSize=26;fontColor=#333333;" vertex="1" parent="1">
          <mxGeometry x="475" y="6540" width="30" height="40" as="geometry" />
        </mxCell>
        <mxCell id="PpvAkOJpzQYMoEsu-7qa-241" value="&lt;b&gt;4&lt;/b&gt;" style="text;html=1;align=center;verticalAlign=middle;resizable=0;points=[];autosize=1;strokeColor=none;fillColor=none;fontSize=26;fontColor=#333333;" vertex="1" parent="1">
          <mxGeometry x="645" y="6540" width="30" height="40" as="geometry" />
        </mxCell>
        <mxCell id="PpvAkOJpzQYMoEsu-7qa-242" value="5" style="text;html=1;align=center;verticalAlign=middle;resizable=0;points=[];autosize=1;strokeColor=none;fillColor=none;fontSize=26;fontColor=#333333;" vertex="1" parent="1">
          <mxGeometry x="825" y="6540" width="30" height="40" as="geometry" />
        </mxCell>
        <mxCell id="PpvAkOJpzQYMoEsu-7qa-243" value="&lt;b&gt;1&lt;/b&gt;" style="text;html=1;align=center;verticalAlign=middle;resizable=0;points=[];autosize=1;strokeColor=none;fillColor=none;fontSize=26;fontColor=#333333;" vertex="1" parent="1">
          <mxGeometry x="115" y="6590" width="30" height="40" as="geometry" />
        </mxCell>
        <mxCell id="PpvAkOJpzQYMoEsu-7qa-244" value="&lt;b&gt;2&lt;/b&gt;" style="text;html=1;align=center;verticalAlign=middle;resizable=0;points=[];autosize=1;strokeColor=none;fillColor=none;fontSize=26;fontColor=#333333;" vertex="1" parent="1">
          <mxGeometry x="115" y="6740" width="30" height="40" as="geometry" />
        </mxCell>
        <mxCell id="PpvAkOJpzQYMoEsu-7qa-245" value="&lt;b&gt;3&lt;/b&gt;" style="text;html=1;align=center;verticalAlign=middle;resizable=0;points=[];autosize=1;strokeColor=none;fillColor=none;fontSize=26;fontColor=#333333;" vertex="1" parent="1">
          <mxGeometry x="125" y="6900" width="30" height="40" as="geometry" />
        </mxCell>
        <mxCell id="PpvAkOJpzQYMoEsu-7qa-246" value="" style="shape=flexArrow;endArrow=classic;html=1;rounded=0;fontSize=29;fontColor=#1A1A1A;fillColor=#a20025;strokeColor=#6F0000;" edge="1" parent="1">
          <mxGeometry width="50" height="50" relative="1" as="geometry">
            <mxPoint x="121.25" y="7030" as="sourcePoint" />
            <mxPoint x="861.25" y="7034.805194805194" as="targetPoint" />
          </mxGeometry>
        </mxCell>
        <mxCell id="PpvAkOJpzQYMoEsu-7qa-247" value="row axis" style="text;html=1;align=center;verticalAlign=middle;resizable=0;points=[];autosize=1;strokeColor=none;fillColor=none;fontSize=26;fontColor=#333333;" vertex="1" parent="1">
          <mxGeometry x="620" y="7030" width="110" height="40" as="geometry" />
        </mxCell>
        <mxCell id="PpvAkOJpzQYMoEsu-7qa-248" value="" style="curved=1;endArrow=classic;html=1;rounded=0;dashed=1;fontSize=26;fontColor=#333333;strokeColor=#FFFFFF;strokeWidth=5;" edge="1" parent="1">
          <mxGeometry width="50" height="50" relative="1" as="geometry">
            <mxPoint x="330" y="6550" as="sourcePoint" />
            <mxPoint x="380" y="6500" as="targetPoint" />
            <Array as="points">
              <mxPoint x="380" y="6550" />
              <mxPoint x="310" y="6520" />
              <mxPoint x="330" y="6500" />
              <mxPoint x="350" y="6500" />
            </Array>
          </mxGeometry>
        </mxCell>
        <mxCell id="PpvAkOJpzQYMoEsu-7qa-249" value="" style="curved=1;endArrow=classic;html=1;rounded=0;dashed=1;fontSize=26;fontColor=#333333;strokeColor=#B09500;strokeWidth=5;fillColor=#e3c800;" edge="1" parent="1">
          <mxGeometry width="50" height="50" relative="1" as="geometry">
            <mxPoint x="495" y="6560" as="sourcePoint" />
            <mxPoint x="430" y="6480" as="targetPoint" />
            <Array as="points">
              <mxPoint x="545" y="6560" />
              <mxPoint x="475" y="6530" />
              <mxPoint x="495" y="6510" />
              <mxPoint x="515" y="6510" />
            </Array>
          </mxGeometry>
        </mxCell>
        <mxCell id="PpvAkOJpzQYMoEsu-7qa-250" value="" style="curved=1;endArrow=classic;html=1;rounded=0;dashed=1;fontSize=26;fontColor=#333333;strokeColor=#B09500;strokeWidth=5;fillColor=#e3c800;" edge="1" parent="1">
          <mxGeometry width="50" height="50" relative="1" as="geometry">
            <mxPoint x="137.5" y="6610" as="sourcePoint" />
            <mxPoint x="420" y="6490" as="targetPoint" />
            <Array as="points">
              <mxPoint x="187.5" y="6610" />
              <mxPoint x="117.5" y="6580" />
              <mxPoint x="137.5" y="6560" />
              <mxPoint x="157.5" y="6560" />
            </Array>
          </mxGeometry>
        </mxCell>
        <mxCell id="PpvAkOJpzQYMoEsu-7qa-251" value="" style="curved=1;endArrow=classic;html=1;rounded=0;dashed=1;fontSize=26;fontColor=#333333;strokeColor=#B09500;strokeWidth=5;fillColor=#e3c800;" edge="1" parent="1">
          <mxGeometry width="50" height="50" relative="1" as="geometry">
            <mxPoint x="360" y="6580" as="sourcePoint" />
            <mxPoint x="440" y="6490" as="targetPoint" />
            <Array as="points">
              <mxPoint x="410" y="6580" />
              <mxPoint x="340" y="6550" />
              <mxPoint x="360" y="6530" />
              <mxPoint x="380" y="6530" />
            </Array>
          </mxGeometry>
        </mxCell>
        <mxCell id="PpvAkOJpzQYMoEsu-7qa-252" value="" style="curved=1;endArrow=classic;html=1;rounded=0;dashed=1;fontSize=26;fontColor=#333333;strokeColor=#B09500;strokeWidth=5;fillColor=#e3c800;" edge="1" parent="1">
          <mxGeometry width="50" height="50" relative="1" as="geometry">
            <mxPoint x="660" y="6560" as="sourcePoint" />
            <mxPoint x="460" y="6480" as="targetPoint" />
            <Array as="points">
              <mxPoint x="710" y="6560" />
              <mxPoint x="640" y="6530" />
              <mxPoint x="660" y="6510" />
              <mxPoint x="680" y="6510" />
              <mxPoint x="710" y="6470" />
            </Array>
          </mxGeometry>
        </mxCell>
        <mxCell id="PpvAkOJpzQYMoEsu-7qa-253" value="grid lines" style="text;html=1;align=center;verticalAlign=middle;resizable=0;points=[];autosize=1;strokeColor=none;fillColor=none;fontSize=26;fontColor=#333333;" vertex="1" parent="1">
          <mxGeometry x="380" y="6440" width="120" height="40" as="geometry" />
        </mxCell>
        <mxCell id="PpvAkOJpzQYMoEsu-7qa-254" value="" style="curved=1;endArrow=classic;html=1;rounded=0;dashed=1;fontSize=26;fontColor=#333333;strokeColor=#FFFFFF;strokeWidth=5;" edge="1" parent="1">
          <mxGeometry width="50" height="50" relative="1" as="geometry">
            <mxPoint x="540" y="6970" as="sourcePoint" />
            <mxPoint x="480" y="7140" as="targetPoint" />
            <Array as="points">
              <mxPoint x="500" y="7060" />
              <mxPoint x="450" y="7010" />
            </Array>
          </mxGeometry>
        </mxCell>
        <mxCell id="PpvAkOJpzQYMoEsu-7qa-256" value="" style="curved=1;endArrow=classic;html=1;rounded=0;dashed=1;fontSize=26;fontColor=#333333;strokeColor=#432D57;strokeWidth=5;fillColor=#76608a;" edge="1" parent="1">
          <mxGeometry width="50" height="50" relative="1" as="geometry">
            <mxPoint x="555" y="6910" as="sourcePoint" />
            <mxPoint x="580" y="7110" as="targetPoint" />
            <Array as="points">
              <mxPoint x="605" y="6910" />
              <mxPoint x="555" y="6860" />
            </Array>
          </mxGeometry>
        </mxCell>
        <mxCell id="PpvAkOJpzQYMoEsu-7qa-257" value="" style="curved=1;endArrow=classic;html=1;rounded=0;dashed=1;fontSize=26;fontColor=#333333;strokeColor=#432D57;strokeWidth=5;fillColor=#76608a;" edge="1" parent="1">
          <mxGeometry width="50" height="50" relative="1" as="geometry">
            <mxPoint x="770" y="6890" as="sourcePoint" />
            <mxPoint x="580" y="7110" as="targetPoint" />
            <Array as="points">
              <mxPoint x="795" y="6910" />
              <mxPoint x="745" y="6860" />
            </Array>
          </mxGeometry>
        </mxCell>
        <mxCell id="PpvAkOJpzQYMoEsu-7qa-258" value="GRID CELLS" style="text;html=1;align=center;verticalAlign=middle;resizable=0;points=[];autosize=1;strokeColor=none;fillColor=none;fontSize=26;fontColor=#333333;" vertex="1" parent="1">
          <mxGeometry x="475" y="7120" width="170" height="40" as="geometry" />
        </mxCell>
      </root>
    </mxGraphModel>
  </diagram>
</mxfile>
